<svg width="13" height="12" viewBox="0 0 13 12" fill="none" xmlns="http://www.w3.org/2000/svg">
<path d="M0.393555 4.00684C0.393555 6.71094 2.65967 9.37061 6.23975 11.6558C6.37305 11.7383 6.56348 11.8271 6.69678 11.8271C6.83008 11.8271 7.02051 11.7383 7.16016 11.6558C10.7339 9.37061 13 6.71094 13 4.00684C13 1.75977 11.4575 0.172852 9.40088 0.172852C8.22656 0.172852 7.27441 0.731445 6.69678 1.58838C6.13184 0.737793 5.16699 0.172852 3.99268 0.172852C1.93604 0.172852 0.393555 1.75977 0.393555 4.00684ZM1.41553 4.00684C1.41553 2.31836 2.50732 1.19482 3.97998 1.19482C5.17334 1.19482 5.85889 1.9375 6.26514 2.57227C6.43652 2.82617 6.54443 2.896 6.69678 2.896C6.84912 2.896 6.94434 2.81982 7.12842 2.57227C7.56641 1.9502 8.22656 1.19482 9.41357 1.19482C10.8862 1.19482 11.978 2.31836 11.978 4.00684C11.978 6.36816 9.4834 8.91357 6.83008 10.6782C6.7666 10.7227 6.72217 10.7544 6.69678 10.7544C6.67139 10.7544 6.62695 10.7227 6.56982 10.6782C3.91016 8.91357 1.41553 6.36816 1.41553 4.00684Z" fill="#EBEBF5" fill-opacity="0.6"/>
</svg>
